<svg width="714" height="732" viewBox="0 0 714 732" fill="none" xmlns="http://www.w3.org/2000/svg">
<path d="M321.552 38.1H339.552V42.35H321.552V38.1ZM322.002 53.65H342.402V58H317.002V23H341.702V27.35H322.002V53.65Z" fill="white"/>
<path d="M385.255 55.9948L403.991 40.0354L403.103 43.7816L394.105 22.1228L399.651 23.4373L406.81 40.498L404.609 40.0278L418.626 27.9343L423.929 29.1911L406.334 44.2392L407.165 40.7362L416.733 63.4553L411.138 62.1292L403.529 43.934L405.67 44.4414L390.85 57.3209L385.255 55.9948Z" fill="white"/>
<path d="M458.244 72.0583L473.952 40.7812L486.15 46.9073C488.891 48.2836 491.012 49.8899 492.514 51.7261C494.017 53.5624 494.878 55.5615 495.098 57.7234C495.317 59.8853 494.859 62.0982 493.722 64.3621C492.585 66.626 491.084 68.3153 489.218 69.43C487.368 70.5149 485.25 71.018 482.865 70.9392C480.495 70.8307 477.94 70.0883 475.199 68.7119L465.459 63.82L468.524 62.7298L462.712 74.3023L458.244 72.0583ZM468.3 63.1766L467.411 59.9327L477.018 64.7573C479.877 66.1935 482.343 66.6674 484.416 66.1792C486.519 65.7059 488.132 64.3522 489.254 62.1181C490.376 59.884 490.499 57.7823 489.623 55.813C488.776 53.8587 486.923 52.1634 484.064 50.7273L474.457 45.9027L477.59 44.6784L468.3 63.1766Z" fill="white"/>
<path d="M525.082 104.922L547.58 78.1106L551.41 81.3245L531.709 104.804L546.225 116.985L543.429 120.317L525.082 104.922Z" fill="white"/>
<path d="M587.785 160.988C586.192 158.849 585.07 156.588 584.419 154.206C583.787 151.85 583.615 149.526 583.903 147.234C584.218 144.922 584.966 142.744 586.147 140.702C587.327 138.659 588.947 136.872 591.006 135.339C593.064 133.806 595.241 132.767 597.537 132.222C599.832 131.677 602.119 131.595 604.398 131.976C606.703 132.338 608.894 133.159 610.969 134.44C613.044 135.72 614.888 137.444 616.501 139.609C618.093 141.748 619.195 143.982 619.807 146.311C620.465 148.647 620.637 150.971 620.322 153.283C620.054 155.602 619.32 157.769 618.119 159.785C616.939 161.828 615.305 163.625 613.22 165.178C611.134 166.731 608.944 167.779 606.649 168.325C604.373 168.897 602.073 168.988 599.748 168.6C597.469 168.219 595.292 167.388 593.217 166.107C591.188 164.833 589.377 163.127 587.785 160.988ZM591.354 158.33C592.509 159.881 593.841 161.112 595.351 162.024C596.881 162.963 598.486 163.556 600.165 163.802C601.891 164.054 603.608 163.96 605.316 163.52C607.044 163.106 608.683 162.322 610.234 161.167C611.785 160.013 613.006 158.667 613.899 157.13C614.811 155.62 615.38 154.012 615.606 152.306C615.878 150.607 615.784 148.89 615.324 147.155C614.883 145.447 614.086 143.818 612.931 142.267C611.757 140.689 610.405 139.431 608.875 138.492C607.364 137.58 605.747 136.998 604.021 136.745C602.322 136.472 600.608 136.543 598.88 136.957C597.172 137.397 595.542 138.195 593.991 139.35C592.441 140.504 591.209 141.836 590.297 143.346C589.405 144.883 588.833 146.515 588.58 148.24C588.354 149.946 588.461 151.653 588.902 153.362C589.362 155.097 590.18 156.753 591.354 158.33Z" fill="white"/>
<path d="M623.102 205.698L655.24 191.835L660.646 204.369C661.861 207.184 662.453 209.779 662.424 212.151C662.395 214.523 661.769 216.608 660.548 218.406C659.327 220.203 657.553 221.603 655.227 222.607C652.901 223.61 650.665 223.939 648.519 223.594C646.404 223.236 644.474 222.253 642.728 220.647C640.982 219.04 639.502 216.829 638.288 214.013L633.97 204.005L636.973 205.16L625.082 210.289L623.102 205.698ZM632.37 227.184L640.507 213.982L642.626 218.894L634.529 232.188L632.37 227.184ZM636.514 205.358L637.873 202.321L642.131 212.192C643.398 215.13 644.983 217.079 646.885 218.037C648.83 219.013 650.951 219.006 653.246 218.016C655.542 217.025 656.987 215.495 657.582 213.423C658.19 211.382 657.86 208.892 656.593 205.954L652.335 196.083L655.521 197.159L636.514 205.358Z" fill="white"/>
<path d="M673.408 273.801L676.534 291.528L672.348 292.266L669.223 274.539L673.408 273.801ZM658.173 276.945L661.715 297.035L657.431 297.79L653.02 272.776L687.489 266.698L691.778 291.023L687.494 291.778L684.073 272.378L658.173 276.945Z" fill="white"/>
<path d="M663.737 413.486L697.266 423.525L696.09 427.452L661.909 441.384L662.525 439.324L690.068 447.57L688.633 452.36L655.104 442.322L656.28 438.394L690.461 424.462L689.845 426.522L662.303 418.276L663.737 413.486Z" fill="white"/>
<path d="M636.145 496.429C637.478 494.12 639.11 492.194 641.039 490.652C642.952 489.139 645.018 488.061 647.237 487.418C649.484 486.791 651.78 486.615 654.123 486.89C656.466 487.165 658.749 487.944 660.972 489.228C663.195 490.511 665.011 492.098 666.421 493.99C667.83 495.882 668.811 497.949 669.364 500.193C669.945 502.453 670.058 504.789 669.704 507.202C669.351 509.615 668.499 511.991 667.149 514.329C665.815 516.638 664.201 518.535 662.304 520.019C660.421 521.549 658.355 522.627 656.107 523.254C653.871 523.926 651.59 524.11 649.264 523.806C646.921 523.531 644.623 522.744 642.372 521.444C640.12 520.144 638.289 518.548 636.88 516.656C635.453 514.794 634.458 512.718 633.893 510.429C633.341 508.185 633.242 505.857 633.596 503.444C633.962 501.077 634.812 498.738 636.145 496.429ZM639.999 498.654C639.032 500.328 638.429 502.039 638.19 503.787C637.934 505.564 638.025 507.272 638.465 508.911C638.916 510.596 639.682 512.135 640.763 513.529C641.828 514.952 643.197 516.147 644.872 517.114C646.546 518.08 648.265 518.669 650.03 518.879C651.778 519.119 653.48 519.004 655.136 518.536C656.804 518.114 658.343 517.347 659.754 516.237C661.148 515.156 662.328 513.778 663.295 512.104C664.278 510.401 664.898 508.661 665.154 506.884C665.393 505.136 665.287 503.42 664.836 501.735C664.413 500.067 663.669 498.522 662.605 497.099C661.524 495.705 660.146 494.524 658.472 493.558C656.797 492.591 655.086 491.988 653.338 491.749C651.574 491.538 649.849 491.659 648.165 492.11C646.509 492.578 644.984 493.353 643.59 494.434C642.179 495.544 640.982 496.951 639.999 498.654Z" fill="white"/>
<path d="M608.446 547.238L641.934 562.746L638.399 566.492L607.528 552.146L609.312 550.255L625.155 580.531L621.998 583.876L591.024 569.639L592.74 567.821L608.754 597.915L605.494 601.37L588.065 568.841L591.668 565.022L620.452 578.156L619.526 579.138L604.775 551.13L608.446 547.238Z" fill="white"/>
<path d="M496.759 656.232C498.513 655.594 500.233 655.642 501.919 656.376C503.628 657.173 504.825 658.511 505.509 660.391C506.193 662.27 506.125 664.033 505.305 665.679C504.486 667.325 503.199 668.468 501.445 669.106C499.628 669.767 497.939 669.708 496.378 668.928C494.755 668.171 493.601 666.853 492.917 664.974C492.233 663.094 492.258 661.311 492.992 659.625C493.687 658.025 494.942 656.894 496.759 656.232Z" fill="white"/>
<path d="M354.019 694.92L336.14 692.831L336.634 688.609L354.512 690.699L354.019 694.92ZM355.377 679.423L335.115 677.055L335.62 672.734L360.848 675.683L356.785 710.446L332.252 707.579L332.757 703.258L352.324 705.545L355.377 679.423Z" fill="white"/>
<path d="M292.924 669.572L272.462 683.249L273.779 679.631L280.201 702.188L274.845 700.238L269.716 682.462L271.847 683.185L256.521 693.569L251.4 691.705L270.622 678.801L269.391 682.184L262.525 658.508L267.928 660.475L273.373 679.43L271.306 678.678L287.52 667.606L292.924 669.572Z" fill="white"/>
<path d="M222.293 645.144L203.06 674.386L191.656 666.885C189.094 665.2 187.173 663.358 185.894 661.36C184.615 659.362 183.992 657.276 184.025 655.103C184.057 652.931 184.77 650.786 186.162 648.669C187.554 646.553 189.241 645.049 191.223 644.158C193.187 643.296 195.349 643.042 197.709 643.397C200.05 643.78 202.502 644.814 205.064 646.499L214.171 652.489L211 653.216L218.116 642.396L222.293 645.144ZM211.274 652.798L211.78 656.123L202.799 650.216C200.125 648.458 197.731 647.7 195.615 647.945C193.472 648.171 191.713 649.328 190.339 651.417C188.965 653.506 188.599 655.579 189.241 657.636C189.854 659.676 191.498 661.575 194.172 663.333L203.153 669.24L199.899 670.093L211.274 652.798Z" fill="white"/>
<path d="M159.722 604.743L134.264 628.761L130.833 625.125L153.127 604.091L140.122 590.307L143.287 587.322L159.722 604.743Z" fill="white"/>
<path d="M103.952 541.777C105.286 544.086 106.137 546.462 106.508 548.904C106.862 551.317 106.763 553.645 106.21 555.888C105.629 558.149 104.634 560.224 103.224 562.116C101.814 564.008 99.9982 565.595 97.7754 566.878C95.5526 568.162 93.2696 568.941 90.9266 569.216C88.5835 569.491 86.3025 569.307 84.0835 568.663C81.8357 568.037 79.7554 566.967 77.8426 565.454C75.9299 563.941 74.2985 562.015 72.9485 559.677C71.6152 557.368 70.7799 555.021 70.4426 552.637C70.0599 550.24 70.1591 547.912 70.7402 545.652C71.2759 543.38 72.2569 541.312 73.6833 539.45C75.093 537.558 76.9237 535.962 79.1754 534.662C81.427 533.362 83.7244 532.575 86.0674 532.3C88.3938 531.996 90.6893 532.172 92.9538 532.827C95.1728 533.471 97.2386 534.549 99.1514 536.062C101.019 537.563 102.619 539.468 103.952 541.777ZM100.098 544.002C99.1317 542.328 97.9514 540.95 96.5574 539.869C95.1467 538.759 93.6217 537.984 91.9825 537.545C90.2977 537.093 88.5814 536.987 86.8336 537.227C85.0691 537.437 83.3497 538.026 81.6754 538.992C80.001 539.959 78.6316 541.154 77.5671 542.577C76.4859 543.971 75.7341 545.502 75.3115 547.17C74.8434 548.826 74.7374 550.542 74.9933 552.319C75.2327 554.067 75.8356 555.778 76.8023 557.452C77.7856 559.155 78.9827 560.562 80.3933 561.672C81.7874 562.753 83.3267 563.519 85.0115 563.971C86.6674 564.439 88.3776 564.568 90.1421 564.357C91.89 564.118 93.601 563.515 95.2754 562.548C96.9497 561.582 98.3274 560.401 99.4086 559.007C100.473 557.584 101.231 556.031 101.683 554.346C102.105 552.678 102.197 550.97 101.957 549.222C101.701 547.445 101.082 545.705 100.098 544.002Z" fill="white"/>
<path d="M74.0645 493.269L40.5348 503.307L36.62 490.231C35.7404 487.293 35.453 484.648 35.7577 482.295C36.0623 479.942 36.9255 477.944 38.3472 476.3C39.7689 474.657 41.6932 473.472 44.1201 472.745C46.547 472.019 48.8059 471.951 50.8969 472.543C52.9558 473.144 54.7591 474.344 56.3065 476.143C57.854 477.941 59.0675 480.309 59.947 483.247L63.0732 493.689L60.2245 492.193L72.6305 488.479L74.0645 493.269ZM67.3533 470.852L57.7394 483.021L56.205 477.896L65.7902 465.631L67.3533 470.852ZM60.7035 492.05L59.0017 494.908L55.9186 484.61C55.0008 481.544 53.6531 479.425 51.8754 478.252C50.0562 477.057 47.9491 476.818 45.5541 477.535C43.1592 478.252 41.5461 479.605 40.7148 481.594C39.874 483.55 39.9125 486.061 40.8303 489.127L43.9134 499.425L40.8731 497.987L60.7035 492.05Z" fill="white"/>
<path d="M32.0046 419.786L30.958 401.817L35.2009 401.569L36.2475 419.539L32.0046 419.786ZM47.5022 418.433L46.316 398.067L50.6587 397.814L52.1355 423.171L17.1948 425.206L15.7586 400.548L20.1012 400.295L21.2467 419.962L47.5022 418.433Z" fill="white"/>
<path d="M57.8272 282.168L25.6896 268.305L27.3135 264.541L62.8815 254.671L62.0299 256.645L35.6312 245.258L37.6116 240.667L69.7492 254.53L68.1253 258.294L32.5573 268.164L33.4089 266.19L59.8076 277.577L57.8272 282.168Z" fill="white"/>
<path d="M94.8615 202.989C93.2691 205.128 91.4252 206.852 89.3298 208.159C87.2544 209.44 85.0773 210.271 82.7986 210.652C80.4932 211.014 78.1929 210.922 75.8976 210.377C73.6023 209.832 71.4253 208.793 69.3665 207.26C67.3077 205.727 65.6881 203.94 64.5075 201.897C63.3269 199.855 62.5925 197.687 62.3044 195.395C61.9895 193.083 62.1479 190.749 62.7796 188.393C63.4112 186.038 64.5332 183.777 66.1455 181.611C67.738 179.472 69.5619 177.776 71.6175 176.522C73.6662 175.221 75.8433 174.39 78.1487 174.029C80.4473 173.62 82.7342 173.702 85.0096 174.274C87.3049 174.819 89.4953 175.868 91.5808 177.421C93.6663 178.974 95.2994 180.771 96.48 182.814C97.6805 184.829 98.4282 187.007 98.7232 189.346C99.0113 191.638 98.8395 193.962 98.2079 196.318C97.5694 198.626 96.454 200.85 94.8615 202.989ZM91.2921 200.332C92.4466 198.781 93.2442 197.152 93.6848 195.444C94.1453 193.709 94.2526 192.002 94.0066 190.322C93.7538 188.597 93.1714 186.979 92.2594 185.469C91.3672 183.932 90.1458 182.586 88.595 181.432C87.0443 180.277 85.4048 179.493 83.6767 179.079C81.9684 178.638 80.2648 178.554 78.5657 178.827C76.8599 179.053 75.2419 179.636 73.7119 180.574C72.2018 181.486 70.8695 182.718 69.715 184.268C68.5406 185.846 67.7231 187.502 67.2626 189.237C66.822 190.945 66.7281 192.662 66.9809 194.388C67.2069 196.094 67.766 197.715 68.6581 199.252C69.5701 200.762 70.8015 202.095 72.3523 203.249C73.9031 204.404 75.5326 205.201 77.2408 205.642C78.969 206.056 80.6959 206.136 82.4217 205.884C84.1208 205.611 85.7253 205.019 87.2355 204.106C88.7655 203.168 90.1177 201.91 91.2921 200.332Z" fill="white"/>
<path d="M128.271 155.74L96.8109 136.449L100.756 133.138L129.753 150.972L127.761 152.643L115.541 120.732L119.064 117.776L148.176 135.512L146.261 137.119L133.849 105.37L137.488 102.317L151.023 136.649L147.001 140.023L119.936 123.637L120.97 122.769L132.37 152.301L128.271 155.74Z" fill="white"/>
<path d="M232.228 76.9262C230.412 77.3567 228.709 77.1094 227.119 76.1844C225.514 75.1945 224.481 73.7265 224.02 71.7804C223.559 69.8343 223.831 68.0912 224.836 66.5512C225.841 65.0112 227.252 64.026 229.069 63.5955C230.95 63.1496 232.62 63.4046 234.08 64.3604C235.605 65.3008 236.598 66.744 237.059 68.6901C237.52 70.6362 237.288 72.404 236.363 73.9935C235.488 75.5028 234.109 76.4803 232.228 76.9262Z" fill="white"/>
</svg>
