<svg width="128" height="32" viewBox="0 0 128 32" fill="none" xmlns="http://www.w3.org/2000/svg">
<path d="M0.2 21.96V17.8H11.2V21.96H0.2ZM14.9506 31V8.44C14.9506 6.2 15.604 4.41333 16.9106 3.08C18.244 1.72 20.1373 1.04 22.5906 1.04C23.4706 1.04 24.2973 1.13333 25.0706 1.32C25.8706 1.50667 26.5373 1.8 27.0706 2.2L25.7106 5.96C25.3373 5.66667 24.9106 5.45333 24.4306 5.32C23.9506 5.16 23.4573 5.08 22.9506 5.08C21.9106 5.08 21.124 5.37333 20.5906 5.96C20.0573 6.52 19.7906 7.37333 19.7906 8.52V10.92L19.9506 13.16V31H14.9506ZM11.4306 13.8V9.8H25.6706V13.8H11.4306ZM35.9238 31.28C33.7371 31.28 31.7904 30.8133 30.0838 29.88C28.3771 28.92 27.0304 27.6133 26.0438 25.96C25.0571 24.3067 24.5638 22.4267 24.5638 20.32C24.5638 18.1867 25.0571 16.3067 26.0438 14.68C27.0304 13.0267 28.3771 11.7333 30.0838 10.8C31.7904 9.86667 33.7371 9.4 35.9238 9.4C38.1371 9.4 40.0971 9.86667 41.8038 10.8C43.5371 11.7333 44.8838 13.0133 45.8438 14.64C46.8304 16.2667 47.3238 18.16 47.3238 20.32C47.3238 22.4267 46.8304 24.3067 45.8438 25.96C44.8838 27.6133 43.5371 28.92 41.8038 29.88C40.0971 30.8133 38.1371 31.28 35.9238 31.28ZM35.9238 27C37.1504 27 38.2438 26.7333 39.2038 26.2C40.1638 25.6667 40.9104 24.8933 41.4438 23.88C42.0038 22.8667 42.2838 21.68 42.2838 20.32C42.2838 18.9333 42.0038 17.7467 41.4438 16.76C40.9104 15.7467 40.1638 14.9733 39.2038 14.44C38.2438 13.9067 37.1638 13.64 35.9638 13.64C34.7371 13.64 33.6438 13.9067 32.6838 14.44C31.7504 14.9733 31.0038 15.7467 30.4438 16.76C29.8838 17.7467 29.6038 18.9333 29.6038 20.32C29.6038 21.68 29.8838 22.8667 30.4438 23.88C31.0038 24.8933 31.7504 25.6667 32.6838 26.2C33.6438 26.7333 34.7238 27 35.9238 27ZM49.705 31V9.64H54.465V15.52L53.905 13.8C54.545 12.36 55.545 11.2667 56.905 10.52C58.2917 9.77333 60.0117 9.4 62.065 9.4V14.16C61.8517 14.1067 61.6517 14.08 61.465 14.08C61.2783 14.0533 61.0917 14.04 60.905 14.04C59.0117 14.04 57.505 14.6 56.385 15.72C55.265 16.8133 54.705 18.4533 54.705 20.64V31H49.705ZM63.9066 31V9.64H68.9066V31H63.9066ZM66.4266 6.12C65.4932 6.12 64.7199 5.82666 64.1066 5.24C63.5199 4.65333 63.2266 3.94667 63.2266 3.12C63.2266 2.26667 63.5199 1.56 64.1066 0.999998C64.7199 0.413332 65.4932 0.119999 66.4266 0.119999C67.3599 0.119999 68.1199 0.399999 68.7066 0.959998C69.3199 1.49333 69.6266 2.17333 69.6266 3C69.6266 3.88 69.3332 4.62666 68.7466 5.24C68.1599 5.82666 67.3866 6.12 66.4266 6.12ZM85.1891 9.4C86.8957 9.4 88.4157 9.73333 89.7491 10.4C91.1091 11.0667 92.1757 12.0933 92.9491 13.48C93.7224 14.84 94.1091 16.6 94.1091 18.76V31H89.1091V19.4C89.1091 17.5067 88.6557 16.0933 87.7491 15.16C86.8691 14.2267 85.6291 13.76 84.0291 13.76C82.8557 13.76 81.8157 14 80.9091 14.48C80.0024 14.96 79.2957 15.68 78.7891 16.64C78.3091 17.5733 78.0691 18.76 78.0691 20.2V31H73.0691V9.64H77.8291V15.4L76.9891 13.64C77.7357 12.28 78.8157 11.24 80.2291 10.52C81.6691 9.77333 83.3224 9.4 85.1891 9.4ZM98.0519 31V9.64H103.052V31H98.0519ZM100.572 6.12C99.6385 6.12 98.8652 5.82666 98.2519 5.24C97.6652 4.65333 97.3719 3.94667 97.3719 3.12C97.3719 2.26667 97.6652 1.56 98.2519 0.999998C98.8652 0.413332 99.6385 0.119999 100.572 0.119999C101.505 0.119999 102.265 0.399999 102.852 0.959998C103.465 1.49333 103.772 2.17333 103.772 3C103.772 3.88 103.479 4.62666 102.892 5.24C102.305 5.82666 101.532 6.12 100.572 6.12ZM115.254 31.28C112.908 31.28 111.094 30.68 109.814 29.48C108.534 28.2533 107.894 26.4533 107.894 24.08V4.92H112.894V23.96C112.894 24.9733 113.148 25.76 113.654 26.32C114.188 26.88 114.921 27.16 115.854 27.16C116.974 27.16 117.908 26.8667 118.654 26.28L120.054 29.84C119.468 30.32 118.748 30.68 117.894 30.92C117.041 31.16 116.161 31.28 115.254 31.28ZM104.374 13.8V9.8H118.614V13.8H104.374ZM123.758 31.28C122.851 31.28 122.078 30.9733 121.438 30.36C120.798 29.72 120.478 28.92 120.478 27.96C120.478 26.9467 120.798 26.1467 121.438 25.56C122.078 24.9467 122.851 24.64 123.758 24.64C124.665 24.64 125.438 24.9467 126.078 25.56C126.718 26.1467 127.038 26.9467 127.038 27.96C127.038 28.92 126.718 29.72 126.078 30.36C125.438 30.9733 124.665 31.28 123.758 31.28Z" fill="black"/>
</svg>
