<svg width="140" height="32" viewBox="0 0 140 32" fill="none" xmlns="http://www.w3.org/2000/svg">
<path d="M0.2 21.96V17.8H11.2V21.96H0.2ZM16.5506 31V8.44C16.5506 6.2 17.204 4.41333 18.5106 3.08C19.844 1.72 21.7373 1.04 24.1906 1.04C25.0706 1.04 25.8973 1.13333 26.6706 1.32C27.4706 1.50667 28.1373 1.8 28.6706 2.2L27.3106 5.96C26.9373 5.66667 26.5106 5.45333 26.0306 5.32C25.5506 5.16 25.0573 5.08 24.5506 5.08C23.5106 5.08 22.724 5.37333 22.1906 5.96C21.6573 6.52 21.3906 7.37333 21.3906 8.52V10.92L21.5506 13.16V31H16.5506ZM13.0306 13.8V9.8H27.2706V13.8H13.0306ZM39.1238 31.28C36.9371 31.28 34.9904 30.8133 33.2838 29.88C31.5771 28.92 30.2304 27.6133 29.2437 25.96C28.2571 24.3067 27.7637 22.4267 27.7637 20.32C27.7637 18.1867 28.2571 16.3067 29.2437 14.68C30.2304 13.0267 31.5771 11.7333 33.2838 10.8C34.9904 9.86667 36.9371 9.4 39.1238 9.4C41.3371 9.4 43.2971 9.86667 45.0038 10.8C46.7371 11.7333 48.0838 13.0133 49.0438 14.64C50.0304 16.2667 50.5238 18.16 50.5238 20.32C50.5238 22.4267 50.0304 24.3067 49.0438 25.96C48.0838 27.6133 46.7371 28.92 45.0038 29.88C43.2971 30.8133 41.3371 31.28 39.1238 31.28ZM39.1238 27C40.3504 27 41.4438 26.7333 42.4038 26.2C43.3638 25.6667 44.1104 24.8933 44.6437 23.88C45.2038 22.8667 45.4838 21.68 45.4838 20.32C45.4838 18.9333 45.2038 17.7467 44.6437 16.76C44.1104 15.7467 43.3638 14.9733 42.4038 14.44C41.4438 13.9067 40.3638 13.64 39.1638 13.64C37.9371 13.64 36.8438 13.9067 35.8838 14.44C34.9504 14.9733 34.2038 15.7467 33.6437 16.76C33.0837 17.7467 32.8037 18.9333 32.8037 20.32C32.8037 21.68 33.0837 22.8667 33.6437 23.88C34.2038 24.8933 34.9504 25.6667 35.8838 26.2C36.8438 26.7333 37.9238 27 39.1238 27ZM54.505 31V9.64H59.265V15.52L58.705 13.8C59.345 12.36 60.345 11.2667 61.705 10.52C63.0917 9.77333 64.8117 9.4 66.865 9.4V14.16C66.6517 14.1067 66.4517 14.08 66.265 14.08C66.0783 14.0533 65.8917 14.04 65.705 14.04C63.8117 14.04 62.305 14.6 61.185 15.72C60.065 16.8133 59.505 18.4533 59.505 20.64V31H54.505ZM70.3066 31V9.64H75.3066V31H70.3066ZM72.8266 6.12C71.8932 6.12 71.1199 5.82666 70.5066 5.24C69.9199 4.65333 69.6266 3.94667 69.6266 3.12C69.6266 2.26667 69.9199 1.56 70.5066 0.999998C71.1199 0.413332 71.8932 0.119999 72.8266 0.119999C73.7599 0.119999 74.5199 0.399999 75.1066 0.959998C75.7199 1.49333 76.0266 2.17333 76.0266 3C76.0266 3.88 75.7332 4.62666 75.1466 5.24C74.5599 5.82666 73.7866 6.12 72.8266 6.12ZM93.1891 9.4C94.8957 9.4 96.4157 9.73333 97.7491 10.4C99.1091 11.0667 100.176 12.0933 100.949 13.48C101.722 14.84 102.109 16.6 102.109 18.76V31H97.1091V19.4C97.1091 17.5067 96.6557 16.0933 95.7491 15.16C94.8691 14.2267 93.6291 13.76 92.0291 13.76C90.8557 13.76 89.8157 14 88.9091 14.48C88.0024 14.96 87.2957 15.68 86.7891 16.64C86.3091 17.5733 86.0691 18.76 86.0691 20.2V31H81.0691V9.64H85.8291V15.4L84.9891 13.64C85.7357 12.28 86.8157 11.24 88.2291 10.52C89.6691 9.77333 91.3224 9.4 93.1891 9.4ZM107.652 31V9.64H112.652V31H107.652ZM110.172 6.12C109.239 6.12 108.465 5.82666 107.852 5.24C107.265 4.65333 106.972 3.94667 106.972 3.12C106.972 2.26667 107.265 1.56 107.852 0.999998C108.465 0.413332 109.239 0.119999 110.172 0.119999C111.105 0.119999 111.865 0.399999 112.452 0.959998C113.065 1.49333 113.372 2.17333 113.372 3C113.372 3.88 113.079 4.62666 112.492 5.24C111.905 5.82666 111.132 6.12 110.172 6.12ZM126.454 31.28C124.108 31.28 122.294 30.68 121.014 29.48C119.734 28.2533 119.094 26.4533 119.094 24.08V4.92H124.094V23.96C124.094 24.9733 124.348 25.76 124.854 26.32C125.388 26.88 126.121 27.16 127.054 27.16C128.174 27.16 129.108 26.8667 129.854 26.28L131.254 29.84C130.668 30.32 129.948 30.68 129.094 30.92C128.241 31.16 127.361 31.28 126.454 31.28ZM115.574 13.8V9.8H129.814V13.8H115.574ZM136.558 31.28C135.651 31.28 134.878 30.9733 134.238 30.36C133.598 29.72 133.278 28.92 133.278 27.96C133.278 26.9467 133.598 26.1467 134.238 25.56C134.878 24.9467 135.651 24.64 136.558 24.64C137.465 24.64 138.238 24.9467 138.878 25.56C139.518 26.1467 139.838 26.9467 139.838 27.96C139.838 28.92 139.518 29.72 138.878 30.36C138.238 30.9733 137.465 31.28 136.558 31.28Z" fill="white"/>
</svg>
