<svg width="406" height="400" viewBox="0 0 406 400" fill="none" xmlns="http://www.w3.org/2000/svg">
<path d="M175.622 48.9128V13.9128H189.272C192.339 13.9128 194.956 14.3962 197.122 15.3628C199.289 16.3295 200.956 17.7295 202.122 19.5628C203.289 21.3962 203.872 23.5795 203.872 26.1128C203.872 28.6462 203.289 30.8295 202.122 32.6628C200.956 34.4628 199.289 35.8628 197.122 36.8628C194.956 37.8295 192.339 38.3128 189.272 38.3128H178.372L180.622 35.9628V48.9128H175.622ZM180.622 36.4628L178.372 33.9628H189.122C192.322 33.9628 194.739 33.2795 196.372 31.9128C198.039 30.5462 198.872 28.6128 198.872 26.1128C198.872 23.6128 198.039 21.6795 196.372 20.3128C194.739 18.9462 192.322 18.2628 189.122 18.2628H178.372L180.622 15.7628V36.4628Z" fill="black"/>
<path d="M220.927 47.798L230.787 14.2158L235.585 15.6244L226.95 45.0329L245.132 50.3717L243.907 54.5455L220.927 47.798Z" fill="black"/>
<path d="M256.968 55.085L289.224 34.2102L293.388 36.8864L287.842 74.9265L283.425 72.0881L288.93 37.3497L290.613 38.431L261.3 57.8693L256.968 55.085ZM267.377 51.3733L270.675 48.7382L287.248 59.3888L286.305 63.5377L267.377 51.3733Z" fill="black"/>
<path d="M306.004 88.1563L316.131 79.3812L314.541 82.2804L323.353 54.7313L326.856 58.7745L319.383 81.9886L317.484 79.7969L341.558 75.7411L344.8 79.4821L316.31 84.3209L319.373 83.1221L309.246 91.8973L306.004 88.1563Z" fill="black"/>
<path d="M348.476 150.165L383.12 145.184L383.703 149.243L358.54 176.249L358.234 174.12L386.692 170.029L387.403 174.978L352.76 179.959L352.176 175.901L377.339 148.895L377.645 151.023L349.187 155.115L348.476 150.165Z" fill="black"/>
<path d="M354.15 207.556C354.53 204.917 355.329 202.523 356.547 200.374C357.76 198.259 359.278 196.49 361.098 195.068C362.952 193.65 365.018 192.634 367.295 192.019C369.573 191.403 371.982 191.278 374.522 191.643C377.063 192.009 379.339 192.807 381.351 194.04C383.363 195.272 385.042 196.826 386.388 198.704C387.768 200.586 388.742 202.713 389.31 205.085C389.878 207.456 389.97 209.978 389.586 212.651C389.207 215.29 388.412 217.651 387.204 219.734C386.023 221.854 384.506 223.623 382.652 225.04C380.827 226.495 378.777 227.514 376.505 228.096C374.227 228.712 371.802 228.835 369.228 228.465C366.655 228.095 364.362 227.294 362.35 226.061C360.334 224.862 358.638 223.305 357.263 221.39C355.917 219.512 354.959 217.388 354.391 215.016C353.851 212.682 353.771 210.196 354.15 207.556ZM358.555 208.189C358.28 210.103 358.356 211.916 358.784 213.627C359.206 215.372 359.926 216.923 360.943 218.282C361.988 219.678 363.272 220.823 364.794 221.715C366.311 222.64 368.026 223.24 369.94 223.516C371.854 223.791 373.669 223.698 375.385 223.238C377.096 222.81 378.634 222.072 379.997 221.021C381.389 220.009 382.533 218.726 383.43 217.171C384.322 215.649 384.906 213.931 385.181 212.018C385.461 210.071 385.39 208.225 384.967 206.481C384.54 204.769 383.803 203.215 382.758 201.819C381.746 200.427 380.481 199.269 378.964 198.344C377.442 197.451 375.724 196.868 373.811 196.592C371.897 196.317 370.085 196.393 368.373 196.821C366.657 197.281 365.1 198.034 363.704 199.079C362.341 200.129 361.213 201.415 360.321 202.937C359.424 204.492 358.835 206.243 358.555 208.189Z" fill="black"/>
<path d="M351.831 237.808L388.528 241.705L386.389 246.389L352.542 242.75L353.622 240.385L378.371 263.945L376.46 268.13L342.551 264.627L343.59 262.353L368.443 285.685L366.47 290.006L339.493 264.824L341.674 260.048L373.155 263.212L372.594 264.44L349.608 242.674L351.831 237.808Z" fill="black"/>
<path d="M301.701 320.522C302.957 319.715 304.308 319.449 305.753 319.725C307.227 320.045 308.397 320.879 309.262 322.225C310.127 323.571 310.384 324.958 310.035 326.387C309.685 327.816 308.883 328.935 307.626 329.742C306.325 330.578 304.997 330.83 303.641 330.496C302.241 330.192 301.108 329.366 300.243 328.02C299.378 326.674 299.084 325.279 299.359 323.833C299.619 322.462 300.4 321.358 301.701 320.522Z" fill="black"/>
<path d="M230.378 351.087V386.087H216.728C213.661 386.087 211.044 385.604 208.878 384.637C206.711 383.67 205.044 382.27 203.878 380.437C202.711 378.604 202.128 376.42 202.128 373.887C202.128 371.354 202.711 369.17 203.878 367.337C205.044 365.537 206.711 364.137 208.878 363.137C211.044 362.17 213.661 361.687 216.728 361.687H227.628L225.378 364.037V351.087H230.378ZM225.378 363.537L227.628 366.037H216.878C213.678 366.037 211.261 366.72 209.628 368.087C207.961 369.454 207.128 371.387 207.128 373.887C207.128 376.387 207.961 378.32 209.628 379.687C211.261 381.054 213.678 381.737 216.878 381.737H227.628L225.378 384.237V363.537Z" fill="black"/>
<path d="M185.073 352.202L175.213 385.784L170.415 384.376L179.05 354.967L160.868 349.628L162.093 345.454L185.073 352.202Z" fill="black"/>
<path d="M149.032 344.915L116.776 365.79L112.612 363.114L118.158 325.074L122.575 327.912L117.07 362.65L115.387 361.569L144.7 342.131L149.032 344.915ZM138.623 348.627L135.325 351.262L118.752 340.611L119.695 336.462L138.623 348.627Z" fill="black"/>
<path d="M99.9958 311.844L89.8688 320.619L91.4585 317.72L82.6472 345.269L79.1437 341.225L86.617 318.011L88.5161 320.203L64.442 324.259L61.2005 320.518L89.6904 315.679L86.6272 316.878L96.7543 308.103L99.9958 311.844Z" fill="black"/>
<path d="M57.5243 249.835L22.8805 254.816L22.297 250.757L47.4598 223.751L47.7658 225.88L19.3084 229.971L18.5968 225.022L53.2406 220.041L53.8241 224.099L28.6613 251.105L28.3553 248.977L56.8127 244.885L57.5243 249.835Z" fill="black"/>
<path d="M51.8497 192.444C51.4702 195.083 50.6713 197.477 49.4532 199.626C48.2398 201.741 46.7226 203.51 44.9017 204.932C43.0478 206.35 40.9821 207.366 38.7047 207.981C36.4272 208.597 34.0183 208.722 31.4777 208.357C28.9372 207.991 26.661 207.193 24.6492 205.96C22.6374 204.728 20.9583 203.174 19.6118 201.296C18.2322 199.414 17.2583 197.287 16.6901 194.915C16.1218 192.544 16.0298 190.022 16.4141 187.349C16.7936 184.71 17.5877 182.349 18.7963 180.266C19.9768 178.146 21.4939 176.377 23.3478 174.96C25.1735 173.505 27.2227 172.486 29.4954 171.904C31.7728 171.288 34.1983 171.165 36.7718 171.535C39.3454 171.905 41.638 172.706 43.6498 173.939C45.6663 175.138 47.362 176.695 48.7368 178.61C50.0833 180.488 51.0407 182.612 51.6089 184.984C52.1489 187.318 52.2292 189.804 51.8497 192.444ZM47.445 191.811C47.7201 189.897 47.644 188.084 47.2165 186.373C46.7939 184.628 46.074 183.077 45.057 181.718C44.0117 180.322 42.7282 179.177 41.2064 178.285C39.6893 177.36 37.9739 176.76 36.0602 176.484C34.1466 176.209 32.3316 176.302 30.6153 176.762C28.9037 177.19 27.3662 177.928 26.0029 178.979C24.6114 179.991 23.4671 181.274 22.57 182.829C21.6777 184.351 21.0939 186.069 20.8188 187.982C20.5389 189.929 20.6103 191.775 21.033 193.519C21.4604 195.231 22.1968 196.785 23.242 198.181C24.2543 199.573 25.519 200.731 27.0361 201.656C28.5579 202.549 30.2756 203.132 32.1893 203.408C34.1029 203.683 35.9156 203.607 37.6271 203.179C39.3435 202.719 40.8998 201.966 42.2961 200.921C43.6594 199.871 44.7872 198.585 45.6795 197.063C46.5766 195.508 47.1651 193.757 47.445 191.811Z" fill="black"/>
<path d="M54.1692 162.192L17.4717 158.295L19.6111 153.611L53.4579 157.25L52.3778 159.615L27.6286 136.055L29.5395 131.87L63.4486 135.373L62.4101 137.647L37.557 114.315L39.5302 109.994L66.507 135.176L64.3261 139.952L32.8454 136.788L33.4062 135.56L56.3916 157.326L54.1692 162.192Z" fill="black"/>
<path d="M113.299 79.478C112.043 80.2854 110.692 80.5512 109.247 80.2754C107.773 79.9547 106.603 79.1214 105.738 77.7754C104.873 76.4294 104.616 75.0418 104.965 73.6127C105.315 72.1835 106.117 71.0653 107.374 70.2579C108.675 69.4217 110.003 69.1703 111.359 69.5038C112.759 69.8084 113.892 70.6337 114.757 71.9797C115.622 73.3257 115.916 74.7213 115.641 76.1665C115.381 77.538 114.6 78.6418 113.299 79.478Z" fill="black"/>
</svg>
